<svg id="icon-assinatura" xmlns="http://www.w3.org/2000/svg" xmlns:xlink="http://www.w3.org/1999/xlink" width="19" height="19" viewBox="0 0 19 19">
  <defs>
    <clipPath id="clip-path">
      <rect id="Ret칙ngulo_191" data-name="Ret칙ngulo 191" width="19" height="19" fill="#1d4ed8" stroke="#707070" stroke-width="1"/>
    </clipPath>
  </defs>
  <g id="Grupo_de_m치scara_68" data-name="Grupo de m치scara 68" clip-path="url(#clip-path)">
    <g id="Grupo_1465" data-name="Grupo 1465">
      <path id="Caminho_264" data-name="Caminho 264" d="M18.3,9.405a2.435,2.435,0,0,0-3.357,0L9.405,14.947a2.353,2.353,0,0,0-.7,1.678v1.583A.794.794,0,0,0,9.5,19h1.583a2.353,2.353,0,0,0,1.678-.7L18.3,12.762a2.37,2.37,0,0,0,0-3.357Zm-1.116,2.24-5.542,5.542a.784.784,0,0,1-.562.23h-.792v-.792a.832.832,0,0,1,.23-.562l5.542-5.542a.8.8,0,0,1,1.116,0,.8.8,0,0,1,0,1.124Zm-6.1-.958a1.188,1.188,0,1,0-2.375,0,1.565,1.565,0,0,0,.23.784,1.518,1.518,0,0,1-1.021.4,2.318,2.318,0,0,1-1.029-.269,5.424,5.424,0,0,0,1.029-2.9,2.375,2.375,0,1,0-4.75,0A4.859,4.859,0,0,0,4.52,11.717a1.189,1.189,0,0,1-.562.158.792.792,0,0,0,0,1.583,3.038,3.038,0,0,0,1.821-.673,4.026,4.026,0,0,0,2.137.673A3.3,3.3,0,0,0,11.083,10.688Zm-5.439-.079a3.314,3.314,0,0,1-.895-1.9.792.792,0,1,1,1.583,0A3.7,3.7,0,0,1,5.645,10.608Zm1.48,6.017a.794.794,0,0,1-.792.792H3.958A3.96,3.96,0,0,1,0,13.458v-9.5A3.96,3.96,0,0,1,3.958,0h4.56a3.17,3.17,0,0,1,2.24.926l2.565,2.565a3.137,3.137,0,0,1,.926,2.24V7.125a.792.792,0,1,1-1.583,0V5.732a.771.771,0,0,0-.016-.19H10.292A1.588,1.588,0,0,1,8.708,3.958V1.6c-.063,0-.127-.016-.19-.016H3.958A2.382,2.382,0,0,0,1.583,3.958v9.5a2.382,2.382,0,0,0,2.375,2.375H6.333A.794.794,0,0,1,7.125,16.625Z" fill="#1d4ed8"/>
    </g>
  </g>
</svg>
