<svg id="icon-back" xmlns="http://www.w3.org/2000/svg" xmlns:xlink="http://www.w3.org/1999/xlink" width="24" height="24" viewBox="0 0 24 24">
  <defs>
    <clipPath id="clip-path">
      <rect id="Ret칙ngulo_127" data-name="Ret칙ngulo 127" width="24" height="24" transform="translate(696 592)" fill="#fff" stroke="#707070" stroke-width="1"/>
    </clipPath>
  </defs>
  <g id="Grupo_de_m치scara_42" data-name="Grupo de m치scara 42" transform="translate(-696 -592)" clip-path="url(#clip-path)">
    <g id="Grupo_55" data-name="Grupo 55" transform="translate(696.001 590.586)">
      <path id="Caminho_54" data-name="Caminho 54" d="M23,24a1,1,0,0,1-1-1,6.006,6.006,0,0,0-6-6H10.17v1.586A2,2,0,0,1,6.756,20L.877,14.121a3,3,0,0,1,0-4.242L6.756,4A2,2,0,0,1,10.17,5.414V7H15a9.01,9.01,0,0,1,9,9v7A1,1,0,0,1,23,24ZM8.17,5.414,2.291,11.293a1,1,0,0,0,0,1.414L8.17,18.586V16a1,1,0,0,1,1-1H16a7.984,7.984,0,0,1,6,2.714V16a7.008,7.008,0,0,0-7-7H9.17a1,1,0,0,1-1-1Z" fill="#fff"/>
    </g>
  </g>
</svg>
